# Blender v2.79 (sub 0) OBJ File: 'Crate.blend'
# www.blender.org
mtllib Crate.mtl
o Cube
v 1.000237 -1.000000 -1.000000
v 1.000237 -1.000000 1.000000
v -0.999764 -1.000000 1.000000
v -0.999763 -1.000000 -1.000000
v 0.995522 0.999973 -1.000926
v 0.995521 0.999973 0.999074
v -0.999764 1.000000 1.000000
v -0.999763 1.000000 -1.000000
v 0.849834 0.999973 -0.855239
v 0.849833 0.999973 0.853385
v -0.854075 1.000000 -0.854312
v -0.854076 1.000000 0.854312
v -0.999764 -0.884787 0.884787
v -0.999763 -0.884787 -0.884787
v -0.999764 0.884787 0.884787
v -0.999763 0.884787 -0.884787
v 0.895511 -0.895274 -1.000000
v -0.895038 -0.895274 -1.000000
v 0.895511 0.895274 -1.000000
v -0.895038 0.895274 -1.000000
v 1.000237 -0.911239 -0.911239
v 1.000237 -0.911239 0.911239
v 1.000237 0.911239 -0.911239
v 1.000236 0.911239 0.911240
v 0.891993 -0.891756 1.000000
v -0.891520 -0.891756 1.000000
v 0.891992 0.891756 1.000001
v -0.891520 0.891756 1.000000
v 0.881070 -1.000000 -0.880834
v 0.881070 -1.000000 0.880834
v -0.880597 -1.000000 -0.880834
v -0.880597 -1.000000 0.880834
vt 1.000171 1.001309
vt 0.001117 1.001310
vt 0.001117 -0.003578
vt 1.000171 -0.003578
vt 1.006038 1.000093
vt -0.004985 0.999539
vt -0.004979 -0.010121
vt 1.006044 -0.009568
vt -0.006493 0.990152
vt -0.006145 -0.004128
vt 0.999288 -0.003784
vt 0.998940 0.990495
vt 0.998116 -0.010076
vt 0.998116 0.998985
vt 0.008697 0.998984
vt 0.008698 -0.010076
vt -0.000181 1.003552
vt -0.000181 0.000305
vt 0.998675 0.000305
vt 0.998676 1.003552
vt -0.010095 1.003563
vt -0.010094 -0.006201
vt 1.006155 -0.006201
vt 1.006155 1.003563
vt 0.882774 0.900410
vt 0.101741 0.900411
vt 0.035145 0.811617
vt 0.949369 0.811617
vt 0.104251 0.821059
vt 0.914561 0.821146
vt 0.983876 0.913481
vt 0.034999 0.913481
vt 0.902812 0.905655
vt 0.123907 0.905572
vt 0.057277 0.816816
vt 0.969380 0.816816
vt 0.120229 0.801378
vt 0.883739 0.801378
vt 0.948840 0.888180
vt 0.055128 0.888180
vt 0.060936 0.833095
vt 0.930048 0.833094
vt 0.986634 0.908541
vt 0.004352 0.908541
vt 0.924727 0.894949
vt 0.067812 0.890150
vt 0.012255 0.815449
vt 0.980752 0.820875
vt 0.060987 0.843697
vt 0.933718 0.837420
vt 0.990846 0.912775
vt 0.004471 0.919869
vt 0.919190 0.911816
vt 0.064012 0.911816
vt 0.008333 0.837577
vt 0.974869 0.837577
vt 0.110858 0.851728
vt 0.907360 0.851728
vt 0.953946 0.913843
vt 0.064273 0.913843
vt 0.933537 0.920770
vt 0.060499 0.920833
vt 0.009446 0.855815
vt 0.984596 0.852685
vt 0.070240 0.845937
vt 0.927692 0.845924
vt 0.977844 0.912791
vt 0.020089 0.912807
vt 0.061145 0.847380
vt 0.924487 0.847115
vt 0.974994 0.914426
vt 0.012934 0.914709
vt 0.942663 0.869756
vt 0.056668 0.869755
vt 0.013517 0.812221
vt 0.985815 0.812221
vt 0.946612 0.870926
vt 0.071710 0.876290
vt 0.028903 0.819736
vt 0.989014 0.813183
vt 0.063306 0.839144
vt 0.906196 0.831589
vt 0.947508 0.885462
vt 0.022531 0.894240
vt 0.059533 0.836914
vt 0.926677 0.836915
vt 0.969352 0.893288
vt 0.017740 0.893288
vt 0.932510 0.915888
vt 0.058476 0.915890
vt 0.005430 0.845161
vt 0.985555 0.845161
vt 0.921543 0.872066
vt 0.075676 0.873142
vt 0.024291 0.804758
vt 0.972819 0.806532
vt 0.896320 0.864735
vt 0.099938 0.869570
vt 0.051385 0.805418
vt 0.944433 0.799998
vt 0.067988 0.835645
vt 0.920707 0.835657
vt 0.970205 0.904647
vt 0.016235 0.904646
vt 0.069758 0.812788
vt 0.917335 0.812788
vt 0.974669 0.889232
vt 0.012425 0.889232
vt 0.931761 0.909092
vt 0.059224 0.909092
vt 0.000202 0.830396
vt 0.990782 0.830396
vt 0.098209 0.821338
vt 0.909649 0.821337
vt 0.964538 0.894522
vt 0.043321 0.894522
vt 0.938065 0.909184
vt 0.076265 0.909185
vt 0.017970 0.831457
vt 0.996360 0.831457
vn 0.0000 -1.0000 -0.0000
vn 0.0000 1.0000 0.0000
vn 1.0000 0.0000 0.0000
vn -0.0000 -0.0000 1.0000
vn -1.0000 -0.0000 -0.0000
vn 0.0000 0.0000 -1.0000
vn -0.0045 -0.0002 -1.0000
vn -0.0002 -0.0044 -1.0000
vn 0.9997 0.0012 -0.0264
vn 0.9996 0.0012 0.0267
vn 0.9986 0.0531 0.0000
vn 0.0044 0.0003 1.0000
vn 0.0002 0.0043 1.0000
usemtl Material
s off
f 29/1/1 30/2/1 32/3/1 31/4/1
f 9/5/2 11/6/2 12/7/2 10/8/2
f 21/9/3 23/10/3 24/11/3 22/12/3
f 25/13/4 27/14/4 28/15/4 26/16/4
f 13/17/5 15/18/5 16/19/5 14/20/5
f 19/21/6 17/22/6 18/23/6 20/24/6
f 9/25/2 10/26/2 6/27/2 5/28/2
f 11/29/2 9/30/2 5/31/2 8/32/2
f 10/33/2 12/34/2 7/35/2 6/36/2
f 12/37/2 11/38/2 8/39/2 7/40/2
f 13/41/5 14/42/5 4/43/5 3/44/5
f 15/45/5 13/46/5 3/47/5 7/48/5
f 14/49/5 16/50/5 8/51/5 4/52/5
f 16/53/5 15/54/5 7/55/5 8/56/5
f 18/57/6 17/58/6 1/59/6 4/60/6
f 17/61/7 19/62/7 5/63/7 1/64/7
f 20/65/6 18/66/6 4/67/6 8/68/6
f 19/69/8 20/70/8 8/71/8 5/72/8
f 21/73/3 22/74/3 2/75/3 1/76/3
f 23/77/9 21/78/9 1/79/9 5/80/9
f 22/81/10 24/82/10 6/83/10 2/84/10
f 24/85/11 23/86/11 5/87/11 6/88/11
f 25/89/4 26/90/4 3/91/4 2/92/4
f 27/93/12 25/94/12 2/95/12 6/96/12
f 26/97/4 28/98/4 7/99/4 3/100/4
f 28/101/13 27/102/13 6/103/13 7/104/13
f 30/105/1 29/106/1 1/107/1 2/108/1
f 29/109/1 31/110/1 4/111/1 1/112/1
f 32/113/1 30/114/1 2/115/1 3/116/1
f 31/117/1 32/118/1 3/119/1 4/120/1
