# 3ds Max Wavefront OBJ Exporter v0.97b - (c)2007 guruware
# File Created: 15.12.2017 17:09:13

mtllib rock01.mtl

#
# object Object007
#

v  13.7150 4.0662 -2.3551
v  18.1730 1.2179 2.7982
v  14.9875 1.2631 -5.4892
v  13.7791 -4.7720 8.2033
v  17.9268 -4.7810 2.1223
v  15.3975 -4.7720 -5.0592
v  1.9702 8.5137 -3.2281
v  2.5580 2.5751 -7.2561
v  -4.4231 2.5566 -5.3160
v  7.4497 -4.7237 -6.4714
v  -0.4614 -4.3798 -9.3647
v  -7.0147 -4.3709 -5.2518
v  -6.7896 8.6585 0.2918
v  -7.7108 2.0458 -2.3339
v  -13.7777 -4.3706 -0.5376
v  -7.8040 1.3052 3.3628
v  -10.5901 -4.3796 6.2205
v  -6.5541 -4.3706 9.0014
v  6.0865 -4.3706 7.2262
v  5.2235 1.3910 3.5178
v  9.4001 4.1442 -5.8816
v  8.9327 7.5810 -2.4737
v  9.6462 7.6504 1.6697
v  -3.6330 7.7944 2.3918
v  14.4010 0.8307 5.8503
v  14.4694 5.4594 4.0243
v  -0.6596 12.4148 0.2658
# 27 vertices

vn 0.7225 0.6346 -0.2743
vn 0.8222 -0.0969 0.5609
vn 0.9334 0.0021 -0.3588
vn 0.9425 0.0404 -0.3319
vn -0.2282 0.5310 -0.8161
vn 0.3455 0.1317 -0.9291
vn -0.2488 0.3783 -0.8916
vn -0.5220 0.1876 -0.8321
vn -0.6577 0.3554 -0.6642
vn -0.6720 0.2449 -0.6989
vn -0.5460 0.2970 -0.7834
vn -0.9905 0.1373 0.0016
vn -0.6474 0.6979 0.3063
vn -0.8879 0.4578 0.0450
vn -0.4674 0.5691 0.6765
vn 0.1162 0.5498 0.8272
vn 0.1918 0.0231 -0.9812
vn 0.0366 0.5634 -0.8253
vn 0.1691 0.7055 -0.6883
vn -0.2949 0.5821 -0.7578
vn -0.0131 0.7033 0.7108
vn 0.0553 0.2466 0.9675
vn -0.0128 0.1560 0.9877
vn -0.4302 0.3978 0.8104
vn 0.5922 0.2552 0.7643
vn 0.6990 0.6770 -0.2305
vn 0.5837 0.2905 0.7582
vn 0.1693 0.7184 -0.6747
vn -0.3141 0.5071 -0.8026
vn 0.0542 0.3884 0.9199
vn -0.3436 0.5660 0.7494
vn 0.4279 0.8995 -0.0887
vn 0.4591 0.7007 -0.5462
vn 0.5370 0.8221 -0.1892
vn -0.2217 0.3926 0.8926
vn -0.1451 0.4632 0.8743
vn 0.1315 -0.0030 -0.9913
# 37 vertex normals

vt 0.5397 0.7369 0.0000
vt 0.4837 0.5111 0.0000
vt 0.5834 0.4906 0.0000
vt 0.4780 0.1258 0.0000
vt 0.5167 0.1257 0.0000
vt 0.5710 0.1252 0.0000
vt 0.7257 0.9662 0.0000
vt 0.7180 0.5617 0.0000
vt 0.8073 0.5962 0.0000
vt 0.6438 0.1250 0.0000
vt 0.7483 0.1254 0.0000
vt 0.8123 0.1260 0.0000
vt 0.3168 0.9355 0.0000
vt 0.4768 0.4467 0.0000
vt 0.5909 0.1292 0.0000
vt 0.1434 0.4861 0.0000
vt 0.1916 0.1305 0.0000
vt 0.1234 0.1287 0.0000
vt 0.3895 0.1245 0.0000
vt 0.3320 0.4571 0.0000
vt 0.5887 0.5542 0.0000
vt 0.4788 0.9771 0.0000
vt 0.4310 0.9601 0.0000
vt 0.1865 0.9408 0.0000
vt 0.3438 0.5073 0.0000
vt 0.4160 0.9175 0.0000
vt 0.5996 0.9700 0.0000
vt 0.6128 0.9764 0.0000
vt 0.2782 0.9699 0.0000
# 29 texture coords

g Object007
usemtl ice01
s off
f 1/1/1 2/2/1 3/3/1 
f 2/2/2 4/4/2 5/5/2 
f 2/2/3 5/5/3 3/3/3 
f 3/3/4 5/5/4 6/6/4 
f 7/7/5 8/8/5 9/9/5 
f 8/8/6 10/10/6 11/11/6 
f 8/8/7 11/11/7 9/9/7 
f 9/9/8 11/11/8 12/12/8 
f 13/13/9 9/9/9 14/14/9 
f 9/9/10 12/12/10 14/14/10 
f 14/14/11 12/12/11 15/15/11 
f 13/13/12 14/14/12 16/16/12 
f 14/14/13 15/15/13 17/17/13 
f 14/14/14 17/17/14 16/16/14 
f 16/16/15 17/17/15 18/18/15 
f 19/19/16 20/20/16 18/18/16 
f 10/10/17 8/8/17 21/21/17 
f 8/8/18 7/7/18 21/21/18 
f 21/21/19 7/7/19 22/22/19 
f 9/9/20 13/13/20 7/7/20 
f 18/18/21 20/20/21 16/16/21 
f 20/20/22 23/23/22 24/24/22 
f 20/20/23 24/24/23 16/16/23 
f 16/16/24 24/24/24 13/13/24 
f 4/4/25 2/2/25 25/25/25 
f 2/2/26 1/1/26 26/26/26 
f 2/2/27 26/26/27 25/25/27 
f 22/22/28 7/7/28 27/27/28 
f 7/7/29 13/13/29 27/28/29 
f 24/24/30 23/23/30 27/29/30 
f 13/13/31 24/24/31 27/29/31 
f 23/23/32 22/22/32 27/29/32 
f 21/21/33 22/22/33 1/1/33 3/3/33 
f 22/22/34 23/23/34 26/26/34 1/1/34 
f 23/23/35 20/20/35 25/25/35 26/26/35 
f 20/20/36 19/19/36 4/4/36 25/25/36 
f 10/10/37 21/21/37 3/3/37 6/6/37 
# 5 polygons - 32 triangles

