# 3ds Max Wavefront OBJ Exporter v0.97b - (c)2007 guruware
# File Created: 15.12.2017 17:11:08

mtllib rock05.mtl

#
# object Object003
#

v  -4.4777 16.0044 -4.3554
v  -4.7056 -0.8115 -5.4431
v  -6.3997 -0.0037 -2.7669
v  -2.1733 -4.0942 -3.1137
v  -3.9577 -4.0995 -2.3128
v  -5.4804 -4.0942 -0.1428
v  -2.6737 17.3537 -0.7641
v  -5.4928 2.1078 0.1619
v  -2.0615 1.5989 5.3812
v  -4.8996 -4.0657 3.0033
v  -1.9780 -3.8573 5.6220
v  2.5946 7.5376 1.6804
v  3.4291 4.2104 5.5027
v  2.2644 -3.8624 5.6028
v  6.3456 1.8341 -2.7499
v  4.4622 -3.8624 2.2697
v  6.1671 -3.8571 -1.6247
v  1.1329 0.3023 -7.1053
v  2.5170 3.5623 -2.1636
v  -0.7597 19.0428 -2.0958
# 20 vertices

vn -0.8376 0.0466 -0.5443
vn -0.2933 -0.6933 -0.6582
vn -0.7886 -0.5085 -0.3457
vn -0.7172 -0.4833 -0.5021
vn -0.8130 0.1839 0.5524
vn -0.6542 0.2634 0.7089
vn -0.8350 0.0115 0.5501
vn -0.3348 0.6733 0.6592
vn 0.0046 0.0442 0.9990
vn -0.0301 0.0167 0.9994
vn 0.8811 0.4348 0.1862
vn 0.8295 -0.1129 0.5470
vn 0.9414 -0.0144 0.3369
vn 0.9149 0.0505 0.4006
vn 0.1415 -0.7216 -0.6776
vn -0.9041 0.1904 0.3826
vn 0.2543 0.3600 0.8976
vn 0.6605 -0.1655 -0.7323
vn 0.8029 0.3689 -0.4682
vn 0.2591 0.7713 -0.5814
vn 0.1985 0.6793 -0.7065
vn -0.1006 -0.6262 -0.7731
vn -0.2848 0.0657 -0.9563
vn -0.6461 0.7623 0.0382
vn 0.2852 0.3729 0.8829
vn 0.4556 0.1003 -0.8845
vn 0.9522 0.2025 -0.2287
vn -0.9698 0.1365 0.2019
vn -0.9701 -0.0139 0.2424
# 29 vertex normals

vt 0.5047 0.9178 0.0000
vt 0.4895 0.3044 0.0000
vt 0.5072 0.3150 0.0000
vt 0.4437 0.0379 0.0000
vt 0.5427 0.0380 0.0000
vt 0.6091 0.0373 0.0000
vt 0.7184 0.9185 0.0000
vt 0.5920 0.3377 0.0000
vt 0.8371 0.3400 0.0000
vt 0.6518 0.0371 0.0000
vt 0.7961 0.0378 0.0000
vt 0.2051 0.6624 0.0000
vt 0.4804 0.3296 0.0000
vt 0.9062 0.0389 0.0000
vt 0.1160 0.3368 0.0000
vt 0.2231 0.0483 0.0000
vt 0.1625 0.0455 0.0000
vt 0.2633 0.3183 0.0000
vt 0.1680 0.6241 0.0000
vt 0.6122 0.9180 0.0000
vt 0.6641 0.9184 0.0000
vt 0.2674 0.9167 0.0000
# 22 texture coords

g Object003
usemtl ice02
s off
f 1/1/1 2/2/1 3/3/1 
f 2/2/2 4/4/2 5/5/2 
f 2/2/3 5/5/3 3/3/3 
f 3/3/4 5/5/4 6/6/4 
f 7/7/5 8/8/5 9/9/5 
f 8/8/6 10/10/6 11/11/6 
f 8/8/7 11/11/7 9/9/7 
f 12/12/8 9/9/8 13/13/8 
f 9/9/9 11/11/9 14/14/9 
f 9/9/10 14/14/10 13/13/10 
f 12/12/11 13/13/11 15/15/11 
f 13/13/12 14/14/12 16/16/12 
f 13/13/13 16/16/13 15/15/13 
f 15/15/14 16/16/14 17/17/14 
f 4/4/15 18/18/15 17/17/15 
f 8/8/16 7/7/16 1/1/16 
f 9/9/17 12/12/17 7/7/17 
f 17/17/18 18/18/18 15/15/18 
f 18/18/19 1/1/19 19/19/19 
f 18/18/20 19/19/20 15/15/20 
f 15/15/21 19/19/21 12/12/21 
f 4/4/22 2/2/22 18/18/22 
f 2/2/23 1/1/23 18/18/23 
f 1/1/24 7/7/24 20/20/24 
f 7/7/25 12/12/25 20/21/25 
f 19/19/26 1/1/26 20/22/26 
f 12/12/27 19/19/27 20/22/27 
f 8/8/28 1/1/28 3/3/28 
f 10/10/29 8/8/29 3/3/29 6/6/29 
# 1 polygons - 28 triangles

