# 3ds Max Wavefront OBJ Exporter v0.97b - (c)2007 guruware
# File Created: 15.12.2017 17:09:47

mtllib rock02.mtl

#
# object Object006
#

v  -4.2139 3.6380 -5.6346
v  -4.2827 0.5565 -8.5540
v  -6.4335 1.0008 -5.5900
v  -1.6268 -2.3804 -6.6153
v  -3.7139 -2.3851 -5.8680
v  -5.6263 -2.3804 -3.5503
v  -2.0330 4.6487 -0.0963
v  -5.6673 2.5551 -1.9363
v  -2.2507 1.5118 4.1500
v  -5.2479 -2.3548 0.0563
v  -2.1777 -2.1682 3.2736
v  3.3378 4.7341 1.2185
v  2.9700 1.3573 4.2504
v  1.6451 -2.1728 2.7523
v  5.2521 0.7508 -2.1212
v  4.4231 -2.1728 -0.8201
v  4.9510 -2.1680 -3.1905
v  -0.2537 2.3188 -7.6736
v  3.5896 4.6735 -2.5686
v  0.8564 6.7127 -1.4838
# 20 vertices

vn -0.6447 0.5333 -0.5477
vn -0.2461 -0.6791 -0.6916
vn -0.7175 -0.5402 -0.4397
vn -0.6712 -0.4937 -0.5528
vn -0.6060 0.6544 0.4523
vn -0.7133 0.2104 0.6685
vn -0.8740 -0.1289 0.4685
vn 0.0054 0.6678 0.7444
vn 0.1313 -0.2272 0.9650
vn -0.0290 -0.3812 0.9240
vn 0.9310 0.1824 0.3161
vn 0.6897 -0.4865 0.5363
vn 0.9322 -0.1110 0.3445
vn 0.9607 -0.1773 0.2136
vn 0.4458 -0.3186 -0.8365
vn -0.5165 0.8550 0.0474
vn -0.1551 0.7984 0.5818
vn 0.7233 0.1705 -0.6691
vn 0.0612 0.8880 -0.4557
vn 0.7227 0.2320 -0.6511
vn 0.9171 0.3949 0.0547
vn 0.3262 -0.2974 -0.8973
vn -0.1418 0.6825 -0.7170
vn -0.5578 0.8271 0.0687
vn -0.1784 0.7086 0.6826
vn 0.1995 0.6550 -0.7288
vn 0.6048 0.7959 0.0275
vn -0.7612 0.6388 -0.1121
vn -0.9836 -0.0634 0.1689
# 29 vertex normals

vt 0.5326 0.6873 0.0000
vt 0.5001 0.4607 0.0000
vt 0.5612 0.4796 0.0000
vt 0.4017 0.1264 0.0000
vt 0.5198 0.1263 0.0000
vt 0.5970 0.1261 0.0000
vt 0.7401 0.9487 0.0000
vt 0.6482 0.5589 0.0000
vt 0.7803 0.5519 0.0000
vt 0.6629 0.1259 0.0000
vt 0.7998 0.1267 0.0000
vt 0.3223 0.9147 0.0000
vt 0.4993 0.4835 0.0000
vt 0.8151 0.1276 0.0000
vt 0.1735 0.5084 0.0000
vt 0.2836 0.1298 0.0000
vt 0.1878 0.1290 0.0000
vt 0.3415 0.5222 0.0000
vt 0.2296 0.9101 0.0000
vt 0.6463 0.9643 0.0000
vt 0.6426 0.9826 0.0000
vt 0.3374 0.9684 0.0000
# 22 texture coords

g Object006
usemtl ice01
s off
f 1/1/1 2/2/1 3/3/1 
f 2/2/2 4/4/2 5/5/2 
f 2/2/3 5/5/3 3/3/3 
f 3/3/4 5/5/4 6/6/4 
f 7/7/5 8/8/5 9/9/5 
f 8/8/6 10/10/6 11/11/6 
f 8/8/7 11/11/7 9/9/7 
f 12/12/8 9/9/8 13/13/8 
f 9/9/9 11/11/9 14/14/9 
f 9/9/10 14/14/10 13/13/10 
f 12/12/11 13/13/11 15/15/11 
f 13/13/12 14/14/12 16/16/12 
f 13/13/13 16/16/13 15/15/13 
f 15/15/14 16/16/14 17/17/14 
f 4/4/15 18/18/15 17/17/15 
f 8/8/16 7/7/16 1/1/16 
f 9/9/17 12/12/17 7/7/17 
f 17/17/18 18/18/18 15/15/18 
f 18/18/19 1/1/19 19/19/19 
f 18/18/20 19/19/20 15/15/20 
f 15/15/21 19/19/21 12/12/21 
f 4/4/22 2/2/22 18/18/22 
f 2/2/23 1/1/23 18/18/23 
f 1/1/24 7/7/24 20/20/24 
f 7/7/25 12/12/25 20/21/25 
f 19/19/26 1/1/26 20/22/26 
f 12/12/27 19/19/27 20/22/27 
f 8/8/28 1/1/28 3/3/28 
f 10/10/29 8/8/29 3/3/29 6/6/29 
# 1 polygons - 28 triangles

