# 3ds Max Wavefront OBJ Exporter v0.97b - (c)2007 guruware
# File Created: 15.12.2017 17:10:08

mtllib rock03.mtl

#
# object Object002
#

v  9.2679 6.6034 -2.0495
v  13.4428 0.7791 1.5607
v  12.0235 1.6188 -5.2139
v  7.9666 -4.7720 4.7144
v  8.9598 -4.7810 -1.0532
v  8.1427 -4.7720 -6.6736
v  -1.2557 8.5137 -6.0275
v  -0.3407 2.5751 -9.4619
v  -6.9249 2.5846 -11.7238
v  2.6124 -4.7237 -10.7228
v  -2.3221 -4.3798 -10.0635
v  -5.7905 -4.3709 -10.5087
v  -9.9156 8.6751 -0.1769
v  -13.6939 2.2926 -4.5412
v  -8.4391 -4.3796 -6.7595
v  -9.7656 -4.3706 -1.4142
v  -7.6699 1.1463 6.7439
v  -8.4391 -4.3796 3.9311
v  -5.7905 -4.3706 7.6798
v  2.8018 1.2321 8.7304
v  5.9349 4.5566 -8.7801
v  3.4760 6.8648 0.0426
v  -4.9328 8.5605 4.9839
v  7.1463 4.1100 5.7464
v  -2.9815 12.4148 -0.2202
# 25 vertices

vn 0.8388 0.5333 -0.1096
vn 0.7416 -0.6584 0.1287
vn 0.8077 -0.5402 -0.2362
vn 0.8604 -0.4937 -0.1259
vn 0.2796 0.5126 -0.8118
vn -0.1232 0.1203 -0.9851
vn 0.3249 -0.0107 -0.9457
vn 0.1255 -0.1508 -0.9806
vn -0.5551 0.6678 -0.4960
vn -0.7950 -0.2279 -0.5622
vn -0.6831 -0.3196 -0.6567
vn -0.8010 -0.5651 -0.1978
vn -0.8596 0.1824 0.4774
vn -0.8820 -0.4176 0.2182
vn -0.8814 -0.1110 0.4592
vn -0.8036 -0.1774 0.5682
vn 0.1773 -0.4372 0.8817
vn 0.0471 0.1885 -0.9809
vn -0.0612 0.4926 -0.8681
vn 0.4474 0.8878 -0.1076
vn -0.3268 0.7984 -0.5058
vn -0.1862 0.1023 0.9772
vn 0.4480 0.7339 0.5106
vn -0.1807 0.2898 0.9399
vn -0.6565 0.3949 0.6427
vn 0.5350 -0.0486 0.8435
vn 0.6189 0.6835 0.3870
vn 0.6296 0.7185 -0.2956
vn -0.3859 0.7086 -0.5907
vn 0.4914 0.6016 0.6298
vn -0.4266 0.7959 0.4295
vn 0.2843 0.8690 -0.4050
vn -0.0110 0.8976 0.4406
vn 0.5837 -0.0403 0.8110
vn 0.5356 -0.0634 -0.8421
# 35 vertex normals

vt 0.5112 0.8992 0.0000
vt 0.5173 0.4517 0.0000
vt 0.5715 0.5079 0.0000
vt 0.4008 0.1248 0.0000
vt 0.5325 0.1247 0.0000
vt 0.6230 0.1249 0.0000
vt 0.7496 0.9708 0.0000
vt 0.7109 0.5643 0.0000
vt 0.8179 0.5695 0.0000
vt 0.6870 0.1252 0.0000
vt 0.7584 0.1258 0.0000
vt 0.8712 0.1256 0.0000
vt 0.2879 0.9522 0.0000
vt 0.4931 0.4294 0.0000
vt 0.9181 0.1260 0.0000
vt 0.6100 0.1293 0.0000
vt 0.1512 0.5047 0.0000
vt 0.1969 0.1311 0.0000
vt 0.1231 0.1292 0.0000
vt 0.3063 0.4522 0.0000
vt 0.6058 0.5310 0.0000
vt 0.5107 0.7548 0.0000
vt 0.2287 0.9396 0.0000
vt 0.3189 0.5587 0.0000
vt 0.5667 0.9705 0.0000
vt 0.6227 0.9771 0.0000
vt 0.3320 0.9708 0.0000
# 27 texture coords

g Object002
usemtl ice01
s off
f 1/1/1 2/2/1 3/3/1 
f 2/2/2 4/4/2 5/5/2 
f 2/2/3 5/5/3 3/3/3 
f 3/3/4 5/5/4 6/6/4 
f 7/7/5 8/8/5 9/9/5 
f 8/8/6 10/10/6 11/11/6 
f 8/8/7 11/11/7 9/9/7 
f 9/9/8 11/11/8 12/12/8 
f 13/13/9 9/9/9 14/14/9 
f 9/9/10 12/12/10 15/15/10 
f 9/9/11 15/15/11 14/14/11 
f 14/14/12 15/15/12 16/16/12 
f 13/13/13 14/14/13 17/17/13 
f 14/14/14 16/16/14 18/18/14 
f 14/14/15 18/18/15 17/17/15 
f 17/17/16 18/18/16 19/19/16 
f 4/4/17 20/20/17 19/19/17 
f 10/10/18 8/8/18 21/21/18 
f 8/8/19 7/7/19 21/21/19 
f 21/21/20 7/7/20 22/22/20 
f 9/9/21 13/13/21 7/7/21 
f 19/19/22 20/20/22 17/17/22 
f 20/20/23 22/22/23 23/23/23 
f 20/20/24 23/23/24 17/17/24 
f 17/17/25 23/23/25 13/13/25 
f 4/4/26 2/2/26 24/24/26 
f 2/2/27 1/1/27 24/24/27 
f 22/22/28 7/7/28 25/25/28 
f 7/7/29 13/13/29 25/26/29 
f 23/23/30 22/22/30 25/27/30 
f 13/13/31 23/23/31 25/27/31 
f 21/21/32 22/22/32 1/1/32 3/3/32 
f 22/22/33 20/20/33 24/24/33 1/1/33 
f 20/20/34 4/4/34 24/24/34 
f 10/10/35 21/21/35 3/3/35 6/6/35 
# 3 polygons - 32 triangles

