# 3ds Max Wavefront OBJ Exporter v0.97b - (c)2007 guruware
# File Created: 15.12.2017 17:11:48

mtllib rock06.mtl

#
# object Cylinder001
#

v  2.7404 4.5455 -1.1313
v  1.0780 6.7434 -0.1927
v  1.8707 6.8267 0.2459
v  4.4726 4.6465 -0.0103
v  1.1224 6.7434 0.7565
v  2.7404 4.5455 1.1108
v  1.2760 6.7554 1.6531
v  2.9911 4.5601 3.2411
v  0.4122 6.6635 1.3828
v  1.0817 4.4488 2.5087
v  -0.1889 6.5952 2.0623
v  -0.3379 4.3661 4.0441
v  -0.5177 6.5640 1.2146
v  -0.9866 4.3282 2.0098
v  -1.4209 6.4667 1.1653
v  -3.0075 4.2104 1.7941
v  -0.9671 6.5197 0.3786
v  -1.9071 4.2746 -0.0103
v  -1.4923 6.4667 -0.3624
v  -3.0075 4.2104 -1.8147
v  -0.5976 6.5640 -0.4958
v  -0.9866 4.3282 -2.0304
v  -0.3493 6.5952 -1.3704
v  -0.3379 4.3661 -4.0647
v  0.3125 6.6635 -0.7500
v  1.0817 4.4488 -2.5293
v  1.1474 6.7554 -1.0997
v  2.9911 4.5601 -3.2617
v  2.1942 6.2641 -0.1735
v  3.5038 6.4183 0.9707
v  1.8211 6.2641 1.5488
v  1.6831 6.2864 3.2261
v  0.1559 6.1165 2.3516
v  -1.3257 5.9901 3.2990
v  -1.5475 5.9324 1.6304
v  -3.2570 5.7525 1.1345
v  -2.0063 5.8505 -0.0717
v  -2.6565 5.7525 -1.6376
v  -0.8752 5.9324 -1.4730
v  0.0236 5.9901 -2.9297
v  0.9942 6.1165 -1.5183
v  2.7652 6.2864 -1.7689
v  0.6888 8.5416 -0.3813
v  1.3114 8.5416 -0.0000
v  0.6888 8.5416 0.3813
v  0.7789 8.5416 1.1058
v  0.0926 8.5416 0.8567
v  -0.4177 8.5416 1.3789
v  -0.6508 8.5416 0.6870
v  -1.3772 8.5416 0.6137
v  -0.9817 8.5416 -0.0000
v  -1.3772 8.5416 -0.6137
v  -0.6508 8.5416 -0.6870
v  -0.4177 8.5416 -1.3789
v  0.0926 8.5416 -0.8567
v  0.7789 8.5416 -1.1058
v  1.2945 8.5415 -1.0035
v  2.5882 8.2918 -0.6127
v  1.6281 8.4260 0.3175
v  2.1081 8.2884 1.5336
v  0.7571 8.5377 1.3994
v  0.0621 8.6158 2.5251
v  -0.6626 8.7925 1.4275
v  -2.0093 9.0276 1.6151
v  -1.5619 8.9986 0.3807
v  -2.5462 9.2135 -0.5111
v  -1.2636 9.0007 -0.9528
v  -1.1443 9.0337 -2.2524
v  0.0076 8.7973 -1.5688
v  1.1407 8.6235 -2.2976
v  1.0403 11.1804 -0.6829
v  1.4173 11.0095 -0.0289
v  1.0403 11.0532 0.6404
v  0.1934 11.2784 0.8209
v  -0.4858 11.5157 0.3767
v  -0.4858 11.5863 -0.3576
v  0.1934 11.4371 -0.8292
v  1.3472 13.5956 0.1218
v  1.0596 -0.1580 -0.0334
v  0.6782 -0.1580 -0.8254
v  0.3188 4.5904 -0.5927
v  0.5882 4.5904 -0.0334
v  -0.1788 -0.1580 -1.0210
v  -0.2864 4.5904 -0.7309
v  -0.8660 -0.1580 -0.4729
v  -0.7718 4.5904 -0.3438
v  -0.8660 -0.1580 0.4061
v  -0.7718 4.5904 0.2770
v  -0.1788 -0.1580 0.9542
v  -0.2864 4.5904 0.6640
v  0.6782 -0.1580 0.7586
v  0.3188 4.5904 0.5259
# 92 vertices

vn 0.6906 0.6461 -0.3250
vn 0.6426 0.6608 -0.3878
vn 0.6241 0.7806 0.0337
vn 0.6413 0.7671 -0.0177
vn 0.7363 0.5946 0.3229
vn 0.7133 0.5801 0.3932
vn 0.3782 0.7303 0.5689
vn 0.4201 0.7188 0.5540
vn 0.1858 0.4988 0.8466
vn 0.1295 0.4800 0.8677
vn -0.1938 0.6594 0.7264
vn -0.1844 0.6525 0.7350
vn -0.5835 0.3916 0.7115
vn -0.6015 0.3718 0.7070
vn -0.6730 0.6060 0.4241
vn -0.7333 0.5975 0.3246
vn -0.9179 0.3967 -0.0061
vn -0.9286 0.3647 0.0691
vn -0.7734 0.6235 -0.1143
vn -0.6631 0.6580 -0.3570
vn -0.5485 0.5497 -0.6301
vn -0.6281 0.5069 -0.5904
vn -0.3677 0.7233 -0.5845
vn -0.1585 0.7518 -0.6401
vn 0.0903 0.6578 -0.7477
vn 0.1020 0.6383 -0.7630
vn 0.3073 0.7962 -0.5212
vn 0.3503 0.7870 -0.5078
vn -0.4187 -0.8898 0.1812
vn -0.3666 -0.8972 0.2462
vn -0.1979 -0.9788 -0.0522
vn -0.4322 -0.7743 0.4623
vn -0.3518 -0.9126 -0.2085
vn -0.3527 -0.8934 -0.2783
vn -0.0320 -0.9663 -0.2554
vn -0.6346 -0.7671 -0.0944
vn -0.0377 -0.8757 -0.4814
vn 0.0434 -0.8561 -0.5150
vn 0.2296 -0.9479 -0.2210
vn -0.4328 -0.5457 -0.7176
vn 0.3498 -0.8594 -0.3730
vn 0.4212 -0.8461 -0.3267
vn 0.3460 -0.9379 -0.0256
vn 0.3069 -0.6529 -0.6924
vn 0.5118 -0.8590 0.0143
vn 0.5572 -0.8295 0.0384
vn 0.3177 -0.9276 0.1965
vn 0.6474 -0.7526 -0.1203
vn 0.3575 -0.8400 0.4081
vn 0.3927 -0.7954 0.4617
vn 0.0891 -0.9333 0.3480
vn 0.6194 -0.6545 0.4336
vn -0.0391 -0.8438 0.5352
vn -0.1078 -0.8228 0.5580
vn -0.1627 -0.9648 0.2068
vn 0.1143 -0.6075 0.7860
vn 0.8131 0.4837 -0.3239
vn 0.7852 0.5568 -0.2710
vn 0.6939 0.6818 -0.2318
vn 0.6761 0.7170 0.1695
vn 0.6744 0.6169 0.4057
vn 0.6838 0.5531 0.4758
vn 0.5149 0.7219 0.4623
vn 0.2677 0.6931 0.6693
vn 0.1372 0.5626 0.8153
vn 0.0253 0.4985 0.8665
vn -0.1142 0.6806 0.7237
vn -0.3998 0.6162 0.6786
vn -0.5715 0.4838 0.6628
vn -0.6901 0.4208 0.5888
vn -0.6960 0.6166 0.3680
vn -0.8179 0.5475 0.1771
vn -0.9165 0.3986 -0.0331
vn -0.9234 0.3315 -0.1937
vn -0.7735 0.5446 -0.3243
vn -0.7236 0.4847 -0.4914
vn -0.5459 0.3206 -0.7741
vn -0.4626 0.2648 -0.8461
vn -0.3282 0.5165 -0.7909
vn -0.0525 0.4939 -0.8679
vn 0.2955 0.3858 -0.8740
vn 0.2906 0.3235 -0.9005
vn 0.2834 0.5743 -0.7680
vn 0.6029 0.6292 -0.4905
vn -0.0871 -0.9961 0.0109
vn -0.0661 -0.9940 -0.0869
vn -0.1655 -0.9856 -0.0358
vn -0.1507 -0.9881 -0.0300
vn -0.1709 -0.9790 -0.1109
vn -0.1552 -0.9856 -0.0678
vn -0.1596 -0.9868 -0.0261
vn -0.1201 -0.9928 -0.0021
vn -0.0829 -0.9965 0.0046
vn -0.0005 -0.9994 0.0347
vn -0.1534 -0.9820 0.1100
vn -0.4220 -0.8837 0.2023
vn -0.4515 -0.8386 0.3046
vn -0.2232 -0.9118 0.3447
vn -0.3827 -0.9077 0.1721
vn -0.5717 -0.8184 -0.0570
vn -0.6978 -0.7123 -0.0750
vn -0.5853 -0.8077 0.0710
vn -0.5035 -0.8602 -0.0804
vn -0.3960 -0.8189 -0.4154
vn -0.4263 -0.7284 -0.5364
vn -0.4023 -0.8337 -0.3783
vn -0.3126 -0.9048 -0.2891
vn -0.0264 -0.9254 -0.3780
vn 0.0039 -0.9107 -0.4130
vn -0.0038 -0.9647 -0.2634
vn -0.1197 -0.9816 -0.1491
vn -0.0084 -0.9986 -0.0513
vn 0.7853 0.2462 -0.5681
vn 0.5941 0.2246 -0.7724
vn 0.9853 0.1689 -0.0246
vn 0.9034 0.3785 -0.2017
vn 0.6133 0.2424 0.7517
vn 0.9456 0.1781 0.2723
vn 0.7713 0.3958 0.4985
vn -0.0617 0.4144 0.9080
vn 0.3877 0.2660 0.8826
vn 0.1567 0.4689 0.8692
vn -0.6680 0.5902 0.4533
vn -0.4206 0.3502 0.8369
vn -0.5469 0.5697 0.6134
vn -0.6956 0.6040 -0.3891
vn -0.8953 0.4170 0.1567
vn -0.7763 0.6206 -0.1105
vn -0.1104 0.4121 -0.9044
vn -0.6402 0.4156 -0.6460
vn -0.3109 0.6064 -0.7319
vn 0.0883 0.3672 -0.9260
vn 0.4403 0.4917 -0.7512
vn 0.3615 0.9307 0.0562
vn 0.9951 0.0988 0.0000
vn 0.6271 0.0854 -0.7742
vn 0.6149 0.0850 -0.7840
vn -0.2128 0.0548 -0.9756
vn -0.2320 0.0541 -0.9712
vn -0.8987 0.0297 -0.4376
vn -0.9025 0.0296 -0.4297
vn -0.8987 0.0297 0.4376
vn -0.9025 0.0296 0.4297
vn -0.2128 0.0548 0.9756
vn -0.2320 0.0541 0.9712
vn 0.6271 0.0854 0.7742
vn 0.6149 0.0850 0.7840
# 147 vertex normals

vt 0.3853 0.0581 0.0000
vt 0.3372 0.2642 0.0000
vt 0.4055 0.2642 0.0000
vt 0.4913 0.0581 0.0000
vt 0.0302 0.0568 0.0000
vt 0.1161 0.2629 0.0000
vt 0.1844 0.2629 0.0000
vt 0.1363 0.0568 0.0000
vt 0.3471 0.2642 0.0000
vt 0.4006 0.0581 0.0000
vt 0.1210 0.0568 0.0000
vt 0.1745 0.2629 0.0000
vt 0.2498 0.2629 0.0000
vt 0.2379 0.0568 0.0000
vt 0.3057 0.2629 0.0000
vt 0.3249 0.0568 0.0000
vt 0.3313 0.2629 0.0000
vt 0.3646 0.0568 0.0000
vt 0.4110 0.2629 0.0000
vt 0.4883 0.0568 0.0000
vt 0.0332 0.0581 0.0000
vt 0.1106 0.2642 0.0000
vt 0.1540 0.2642 0.0000
vt 0.1006 0.0581 0.0000
vt 0.4210 0.0568 0.0000
vt 0.3676 0.2629 0.0000
vt 0.1903 0.2642 0.0000
vt 0.1570 0.0581 0.0000
vt 0.2158 0.2642 0.0000
vt 0.1967 0.0581 0.0000
vt 0.2718 0.2642 0.0000
vt 0.2837 0.0581 0.0000
vt 0.3674 0.2842 0.0000
vt 0.4595 0.2842 0.0000
vt 0.0621 0.2829 0.0000
vt 0.1542 0.2829 0.0000
vt 0.3807 0.2842 0.0000
vt 0.1408 0.2829 0.0000
vt 0.2423 0.2829 0.0000
vt 0.3178 0.2829 0.0000
vt 0.3522 0.2829 0.0000
vt 0.4596 0.2829 0.0000
vt 0.0619 0.2842 0.0000
vt 0.1204 0.2842 0.0000
vt 0.4012 0.2829 0.0000
vt 0.1694 0.2842 0.0000
vt 0.2038 0.2842 0.0000
vt 0.2793 0.2842 0.0000
vt 0.3153 0.5085 0.0000
vt 0.3663 0.5085 0.0000
vt 0.1552 0.5072 0.0000
vt 0.2063 0.5072 0.0000
vt 0.3227 0.5085 0.0000
vt 0.1989 0.5072 0.0000
vt 0.2552 0.5072 0.0000
vt 0.2970 0.5072 0.0000
vt 0.3162 0.5072 0.0000
vt 0.3757 0.5072 0.0000
vt 0.1459 0.5085 0.0000
vt 0.1783 0.5085 0.0000
vt 0.3433 0.5072 0.0000
vt 0.2054 0.5085 0.0000
vt 0.2246 0.5085 0.0000
vt 0.2664 0.5085 0.0000
vt 0.1906 0.5072 0.0000
vt 0.1272 0.5072 0.0000
vt 0.3944 0.5085 0.0000
vt 0.3310 0.5085 0.0000
vt 0.1814 0.5072 0.0000
vt 0.3402 0.5085 0.0000
vt 0.2703 0.5085 0.0000
vt 0.2183 0.5085 0.0000
vt 0.1946 0.5085 0.0000
vt 0.1206 0.5085 0.0000
vt 0.4010 0.5072 0.0000
vt 0.3607 0.5072 0.0000
vt 0.1609 0.5085 0.0000
vt 0.3270 0.5072 0.0000
vt 0.3033 0.5072 0.0000
vt 0.2513 0.5072 0.0000
vt 0.2739 0.7290 0.0000
vt 0.2923 0.7290 0.0000
vt 0.2292 0.7277 0.0000
vt 0.2477 0.7277 0.0000
vt 0.2765 0.7290 0.0000
vt 0.2451 0.7277 0.0000
vt 0.2806 0.7277 0.0000
vt 0.3091 0.7277 0.0000
vt 0.2125 0.7290 0.0000
vt 0.2243 0.7290 0.0000
vt 0.2562 0.7290 0.0000
vt 0.2503 0.8450 0.0000
vt 0.2713 0.8437 0.0000
vt 0.6251 0.0309 0.0000
vt 0.6832 0.0309 0.0000
vt 0.6832 0.9597 0.0000
vt 0.6251 0.9597 0.0000
vt 0.8136 0.0309 0.0000
vt 0.8136 0.9597 0.0000
vt 0.9182 0.0309 0.0000
vt 0.9182 0.9597 0.0000
vt 0.6217 0.0309 0.0000
vt 0.6217 0.9597 0.0000
vt 0.7263 0.0309 0.0000
vt 0.7263 0.9597 0.0000
vt 0.8568 0.0309 0.0000
vt 0.8568 0.9597 0.0000
vt 0.9148 0.0309 0.0000
vt 0.9148 0.9597 0.0000
# 109 texture coords

g Cylinder001
usemtl 02___Default
s 1
f 1/1/1 2/2/2 3/3/3 4/4/4 
f 4/5/4 3/6/3 5/7/5 6/8/6 
f 6/1/6 5/2/5 7/9/7 8/10/8 
f 8/11/8 7/12/7 9/13/9 10/14/10 
f 10/14/10 9/13/9 11/15/11 12/16/12 
f 12/16/12 11/15/11 13/17/13 14/18/14 
f 14/18/14 13/17/13 15/19/15 16/20/16 
f 16/21/16 15/22/15 17/23/17 18/24/18 
f 18/25/18 17/26/17 19/19/19 20/20/20 
f 20/21/20 19/22/19 21/27/21 22/28/22 
f 22/28/22 21/27/21 23/29/23 24/30/24 
f 24/30/24 23/29/23 25/31/25 26/32/26 
f 26/32/26 25/31/25 27/9/27 28/10/28 
f 28/11/28 27/12/27 2/7/2 1/8/1 
s 2
f 2/2/29 29/33/30 30/34/31 3/3/32 
f 3/6/32 30/35/31 31/36/33 5/7/34 
f 5/2/34 31/33/33 32/37/35 7/9/36 
f 7/12/36 32/38/35 33/39/37 9/13/38 
f 9/13/38 33/39/37 34/40/39 11/15/40 
f 11/15/40 34/40/39 35/41/41 13/17/42 
f 13/17/42 35/41/41 36/42/43 15/19/44 
f 15/22/44 36/43/43 37/44/45 17/23/46 
f 17/26/46 37/45/45 38/42/47 19/19/48 
f 19/22/48 38/43/47 39/46/49 21/27/50 
f 21/27/50 39/46/49 40/47/51 23/29/52 
f 23/29/52 40/47/51 41/48/53 25/31/54 
f 25/31/54 41/48/53 42/37/55 27/9/56 
f 27/12/56 42/38/55 29/36/30 2/7/29 
s 1
f 29/33/57 43/49/58 44/50/59 30/34/60 
f 30/35/60 44/51/59 45/52/61 31/36/62 
f 31/33/62 45/49/61 46/53/63 32/37/64 
f 32/38/64 46/54/63 47/55/65 33/39/66 
f 33/39/66 47/55/65 48/56/67 34/40/68 
f 34/40/68 48/56/67 49/57/69 35/41/70 
f 35/41/70 49/57/69 50/58/71 36/42/72 
f 36/43/72 50/59/71 51/60/73 37/44/74 
f 37/45/74 51/61/73 52/58/75 38/42/76 
f 38/43/76 52/59/75 53/62/77 39/46/78 
f 39/46/78 53/62/77 54/63/79 40/47/80 
f 40/47/80 54/63/79 55/64/81 41/48/82 
f 41/48/82 55/64/81 56/53/83 42/37/84 
f 42/38/84 56/54/83 43/52/58 29/36/57 
s 2
f 43/52/85 57/65/86 58/66/87 44/51/88 
f 44/50/88 58/67/87 59/68/89 45/49/90 
f 45/52/90 59/65/89 60/69/91 46/54/92 
f 46/53/92 60/70/91 61/71/93 47/64/94 
f 47/64/94 61/71/93 62/72/95 48/63/96 
f 48/63/96 62/72/95 63/73/97 49/62/98 
f 49/62/98 63/73/97 64/74/99 50/59/100 
f 50/58/100 64/75/99 65/76/101 51/61/102 
f 51/60/102 65/77/101 66/74/103 52/59/104 
f 52/58/104 66/75/103 67/78/105 53/57/106 
f 53/57/106 67/78/105 68/79/107 54/56/108 
f 54/56/108 68/79/107 69/80/109 55/55/110 
f 55/55/110 69/80/109 70/69/111 56/54/112 
f 56/53/112 70/70/111 57/68/86 43/49/85 
s 1
f 57/68/113 71/81/114 72/82/115 58/67/116 
f 58/66/116 72/83/115 73/84/117 59/65/118 
f 59/68/118 73/85/117 60/70/119 
f 60/69/119 73/86/117 74/87/120 61/80/121 
f 61/80/121 74/87/120 62/79/122 
f 62/79/122 74/87/120 75/88/123 63/78/124 
f 63/78/124 75/88/123 64/75/125 
f 64/74/125 75/89/123 76/90/126 65/77/127 
f 65/76/127 76/88/126 66/75/128 
f 66/74/128 76/89/126 77/91/129 67/73/130 
f 67/73/130 77/91/129 68/72/131 
f 68/72/131 77/91/129 69/71/132 
f 69/71/132 77/91/129 71/85/114 70/70/133 
f 70/69/133 71/84/114 57/65/113 
f 71/81/114 78/92/134 72/82/115 
f 72/83/115 78/93/134 73/84/117 
f 73/86/117 78/93/134 74/87/120 
f 74/87/120 78/93/134 75/88/123 
f 75/89/123 78/92/134 76/90/126 
f 76/89/126 78/92/134 77/91/129 
f 77/91/129 78/92/134 71/85/114 
s 8
f 79/94/135 80/95/136 81/96/137 82/97/135 
f 80/95/136 83/98/138 84/99/139 81/96/137 
f 83/98/138 85/100/140 86/101/141 84/99/139 
f 85/102/140 87/102/142 88/103/143 86/103/141 
f 87/102/142 89/104/144 90/105/145 88/103/143 
f 89/104/144 91/106/146 92/107/147 90/105/145 
f 91/106/146 79/108/135 82/109/135 92/107/147 
# 70 polygons - 14 triangles

